<svg xmlns="http://www.w3.org/2000/svg" xmlns:xlink="http://www.w3.org/1999/xlink" aria-hidden="true" role="img" class="iconify iconify--logos" width="35.93" height="32" preserveAspectRatio="xMidYMid meet" viewBox="0 0 256 228"><path fill="#00D8FF" d="M210.483 73.824a171.49 171.49 0 0 0-8.24-2.597c.465-1.9.893-3.777 1.273-5.621c6.238-30.281 2.16-54.676-11.769-62.708c-13.355-7.7-35.196.329-57.254 19.526a171.23 171.23 0 0 0-6.375 5.848a155.866 155.866 0 0 0-4.241-3.917C100.759 3.829 77.587-4.822 63.673 3.233C50.33 10.957 46.379 33.89 51.995 62.588a170.974 170.974 0 0 0 1.892 8.48c-3.28.932-6.445 1.924-9.474 2.98C17.309 83.498 0 98.307 0 113.668c0 15.865 18.582 31.778 46.812 41.427a145.52 145.52 0 0 0 6.921 2.165a167.467 167.467 0 0 0-2.01 9.138c-5.354 28.2-1.173 50.591 12.134 58.266c13.744 7.926 36.812-.22 59.273-19.855a145.567 145.567 0 0 0 5.342-4.923a168.064 168.064 0 0 0 6.92 6.314c21.758 18.722 43.246 26.282 56.54 18.586c13.731-7.949 18.194-32.003 12.4-61.268a145.016 145.016 0 0 0-1.535-6.842c1.62-.48 3.21-.974 4.76-1.488c29.348-9.723 48.443-25.443 48.443-41.52c0-15.417-17.868-30.326-45.517-39.844Zm-6.365 70.984c-1.596.54-3.233 1.056-4.902 1.556a167.99 167.99 0 0 0-6.094-18.515a167.99 167.99 0 0 0 6.674-19.288c2.56.87 5.071 1.799 7.511 2.804c17.438 7.452 27.475 17.265 27.475 24.308c0 7.895-11.719 18.568-30.664 25.135Zm-42.182 21.312c-2.218 3.834-4.523 7.502-6.897 10.978c-4.029.192-8.077.289-12.128.289c-4.005 0-7.997-.09-11.975-.266a160.819 160.819 0 0 1-7.17-11.019a160.886 160.886 0 0 1-6.206-12.382a160.557 160.557 0 0 1 6.102-12.489a160.806 160.806 0 0 1 7.051-10.97c4.03-.221 8.077-.334 12.198-.334c4.121 0 8.17.113 12.2.334a160.806 160.806 0 0 1 7.051 10.97a160.886 160.886 0 0 1 6.206 12.382a160.557 160.557 0 0 1-6.206 12.507Zm28.48-5.866a167.47 167.47 0 0 1 6.674 18.515a145.016 145.016 0 0 1-7.611 2.231c-4.01-8.293-8.62-16.804-13.833-25.316a167.99 167.99 0 0 0 14.77 4.57Zm-155.263 25.38c-14.291-7.587-16.32-33.31-10.464-65.618a145.567 145.567 0 0 0 1.855-8.16c2.03.606 4.12 1.19 6.27 1.75a167.99 167.99 0 0 0 7.067 19.34a167.99 167.99 0 0 0-7.067 18.76c-2.11-.546-4.162-1.116-6.155-1.711a145.016 145.016 0 0 0-1.535 6.842c-3.534 17.578-3.617 31.56.028 38.797Zm155.284-38.797a145.016 145.016 0 0 0-1.535-6.842c-1.996.595-4.048 1.165-6.155 1.711a167.99 167.99 0 0 0-7.067-18.76a167.99 167.99 0 0 0 7.067-19.34c2.15-.56 4.24-1.144 6.27-1.75a145.567 145.567 0 0 0 1.855 8.16c5.856 32.308 3.827 58.031-10.464 65.618Zm-42.402-59.186c2.218-3.834 4.523-7.502 6.897-10.978c4.03-.192 8.077-.289 12.128-.289c4.005 0 7.997.09 11.975.266a160.819 160.819 0 0 1 7.17 11.019a160.886 160.886 0 0 1 6.206 12.382a160.557 160.557 0 0 1-6.102 12.489a160.806 160.806 0 0 1-7.051 10.97c-4.03.221-8.077.334-12.198.334c-4.121 0-8.17-.113-12.2-.334a160.806 160.806 0 0 1-7.051-10.97a160.886 160.886 0 0 1-6.206-12.382a160.557 160.557 0 0 1 6.206-12.507Zm-28.48 5.866a167.47 167.47 0 0 1-6.674-18.515a145.016 145.016 0 0 1 7.611-2.231c4.01 8.293 8.62 16.804 13.833 25.316a167.99 167.99 0 0 0-14.77-4.57Z"/></svg>
